# Aspose.3D Wavefront OBJ Exporter
# Copyright 2004-2021 Aspose Pty Ltd.
# File created: 07/16/2021 00:13:42


#
# object obj_36751983
#

v 118.75730133056640624 259.99365234375 230
v 124.51342010498046872 260.44143676757812496 235
v 282.04949951171875 21.9411582946777344 230
v 287.80560302734375008 22.38893699645996096 235
v -287.80560302734375008 -22.38893699645996096 235
v -163.29219055175781248 238.0525054931640625 235
v -282.04949951171875 -21.9411582946777344 230
v -157.53608703613281248 238.50027465820312496 230
v -124.51342010498046872 -260.44143676757812496 235
v -122.0231475830078125 -255.23260498046875 230
v 163.29219055175781248 -238.0525054931640625 235
v 160.0263519287109375 -233.29145812988281248 230
v 230.24449157714843752 17.91114997863769536 230
v 130.63375854492187504 -190.44200134277343752 230
v -99.61073303222656248 -208.3531494140625 230
v 99.61073303222656248 208.3531494140625 230
v -130.63375854492187504 190.44200134277343752 230
v -230.24449157714843752 -17.91114997863769536 230
v -163.29219055175781248 238.0525054931640625 275
v -287.80560302734375008 -22.38893699645996096 275
v -160.0263519287109375 233.29145812988281248 280
v 122.0231475830078125 255.23260498046875 280
v 124.51342010498046872 260.44143676757812496 275
v 282.04949951171875 21.9411582946777344 280
v 287.80560302734375008 22.38893699645996096 275
v 160.0263519287109375 -233.29145812988281248 280
v 163.29219055175781248 -238.0525054931640625 275
v -122.0231475830078125 -255.23260498046875 280
v -124.51342010498046872 -260.44143676757812496 275
v -282.04949951171875 -21.9411582946777344 280
v -99.61073303222656248 -208.3531494140625 280
v 130.63375854492187504 -190.44200134277343752 280
v 230.24449157714843752 17.91114997863769536 280
v 99.61073303222656248 208.3531494140625 280
v -230.24449157714843752 -17.91114997863769536 280
v -130.63375854492187504 190.44200134277343752 280
v 124.51342010498046872 260.44143676757812496 635
v 122.0231475830078125 255.23260498046875 630
v -163.29219055175781248 238.0525054931640625 635
v -160.0263519287109375 233.29145812988281248 630
v -124.51342010498046872 -260.44143676757812496 635
v -127.77925872802734368 -255.68038940429687504 630
v 163.29219055175781248 -238.0525054931640625 635
v 160.0263519287109375 -233.29145812988281248 630
v 287.80560302734375008 22.38893699645996096 635
v 282.04949951171875 21.9411582946777344 630
v -284.53976440429687504 -27.14998626708984376 630
v -287.80560302734375008 -22.38893699645996096 635
v 130.63375854492187504 -190.44200134277343752 630
v -99.61073303222656248 -208.3531494140625 630
v 230.24449157714843752 17.91114997863769536 630
v 99.61073303222656248 208.3531494140625 630
v -130.63375854492187504 190.44200134277343752 630
v -230.24449157714843752 -17.91114997863769536 630
v -287.80560302734375008 -22.38893699645996096 675
v -124.51342010498046872 -260.44143676757812496 675
v 160.0263519287109375 -233.29145812988281248 680
v -122.0231475830078125 -255.23260498046875 680
v 163.29219055175781248 -238.0525054931640625 675
v -282.04949951171875 -21.9411582946777344 680
v -160.0263519287109375 233.29145812988281248 680
v -163.29219055175781248 238.0525054931640625 675
v 122.0231475830078125 255.23260498046875 680
v 124.51342010498046872 260.44143676757812496 675
v 287.80560302734375008 22.38893699645996096 675
v 282.04949951171875 21.9411582946777344 680
v 99.61073303222656248 208.3531494140625 680
v 230.24449157714843752 17.91114997863769536 680
v 130.63375854492187504 -190.44200134277343752 680
v -99.61073303222656248 -208.3531494140625 680
v -230.24449157714843752 -17.91114997863769536 680
v -130.63375854492187504 190.44200134277343752 680
v 230.24449157714843752 17.91114997863769536 50
v 172.68336486816406248 13.43336200714111328 0
v 99.61073303222656248 208.3531494140625 50
v 74.70805358886718752 156.264862060546875 0
v -97.97531890869140624 142.83149719238281248 0
v -172.68336486816406248 -13.43336200714111328 0
v -130.63375854492187504 190.44200134277343752 50
v -230.24449157714843752 -17.91114997863769536 50
v -74.70805358886718752 -156.264862060546875 0
v -99.61073303222656248 -208.3531494140625 50
v 130.63375854492187504 -190.44200134277343752 50
v 97.97531890869140624 -142.83149719238281248 0
v 97.97531890869140624 -142.83149719238281248 930
v -74.70805358886718752 -156.264862060546875 930
v 130.63375854492187504 -190.44200134277343752 880
v -99.61073303222656248 -208.3531494140625 880
v -172.68336486816406248 -13.43336200714111328 930
v -230.24449157714843752 -17.91114997863769536 880
v -97.97531890869140624 142.83149719238281248 930
v -130.63375854492187504 190.44200134277343752 880
v 74.70805358886718752 156.264862060546875 930
v 99.61073303222656248 208.3531494140625 880
v 230.24449157714843752 17.91114997863769536 880
v 172.68336486816406248 13.43336200714111328 930
# 96 vertices

vn 0.58310717344284056 0.39998254179954528 -0.7071067690849304
vn -0.63794863224029544 0.30499434471130372 -0.7071067690849304
vn -0.58310717344284056 -0.39998254179954528 -0.7071067690849304
vn 0.05484146997332573 -0.70497691631317136 -0.7071067690849304
vn 0.63794863224029544 -0.30499434471130372 -0.7071067690849304
vn 0 0 -1
vn -0.90219563245773312 0.43132713437080384 0
vn -0.05484146997332573 0.70497691631317136 0.7071067690849304
vn 0.58310717344284056 0.39998254179954528 0.7071067690849304
vn 0.63794863224029544 -0.30499434471130372 0.7071067690849304
vn 0.05484146997332573 -0.70497691631317136 0.7071067690849304
vn -0.58310717344284056 -0.39998254179954528 0.7071067690849304
vn -0.63794863224029544 0.30499434471130372 0.7071067690849304
vn -0.82463806867599488 -0.56566077470779416 0
vn -0.07755755633115768 0.99698787927627568 -4.204878279149036E-16
vn -0.07755755633115768 0.99698787927627568 5.67104778867694E-15
vn -0.07755755633115768 0.99698787927627568 0
vn 0 0 1
vn -0.05484146997332573 0.70497691631317136 -0.7071067690849304
vn -0.82463806867599488 -0.56566077470779416 3.774134867476353E-15
vn 0.82463806867599488 0.56566077470779416 0
vn 0.90219563245773312 -0.43132713437080384 0
vn 0.07755755633115768 -0.99698787927627568 0
vn -0.82463806867599488 -0.56566077470779416 -8.993184382037362E-17
vn -0.07755755633115768 0.99698787927627568 8.096028260129288E-17
vn 0.82463806867599488 0.56566077470779416 9.001663314188275E-17
# 26 vertex normals

g obj_36751983
s 1
f 1//1 2//1 3//1
f 3//1 2//1 4//1
f 5//2 6//2 7//2
f 7//2 6//2 8//2
f 5//3 7//3 9//3
f 9//3 7//3 10//3
f 9//4 10//4 11//4
f 11//4 10//4 12//4
f 4//5 11//5 3//5
f 3//5 11//5 12//5
f 13//6 3//6 14//6
f 14//6 3//6 12//6
f 14//6 12//6 15//6
f 15//6 12//6 10//6
f 15//6 10//6 7//6
f 13//6 16//6 3//6
f 3//6 16//6 1//6
f 1//6 16//6 8//6
f 8//6 16//6 17//6
f 8//6 17//6 7//6
f 7//6 17//6 18//6
f 7//6 18//6 15//6
f 6//7 5//7 19//7
f 19//7 5//7 20//7
f 21//8 22//8 19//8
f 19//8 22//8 23//8
f 22//9 24//9 23//9
f 23//9 24//9 25//9
f 26//10 27//10 24//10
f 24//10 27//10 25//10
f 26//11 28//11 27//11
f 27//11 28//11 29//11
f 20//12 29//12 30//12
f 30//12 29//12 28//12
f 20//13 30//13 19//13
f 19//13 30//13 21//13
f 5//14 9//14 20//14
f 20//14 9//14 29//14
f 1//15 8//15 2//15
f 2//16 8//16 6//16
f 2//17 6//17 23//17
f 23//17 6//17 19//17
f 31//18 26//18 32//18
f 32//18 26//18 24//18
f 32//18 24//18 33//18
f 33//18 24//18 34//18
f 34//18 24//18 22//18
f 34//18 22//18 21//18
f 35//18 30//18 31//18
f 31//18 30//18 28//18
f 31//18 28//18 26//18
f 35//18 36//18 30//18
f 30//18 36//18 21//18
f 21//18 36//18 34//18
f 37//19 38//19 39//19
f 39//19 38//19 40//19
f 41//4 42//4 43//4
f 43//4 42//4 44//4
f 45//5 43//5 46//5
f 46//5 43//5 44//5
f 45//1 46//1 37//1
f 37//1 46//1 38//1
f 40//2 47//2 39//2
f 39//2 47//2 48//2
f 49//6 44//6 50//6
f 50//6 44//6 42//6
f 50//6 42//6 47//6
f 44//6 49//6 46//6
f 46//6 49//6 51//6
f 46//6 51//6 52//6
f 53//6 40//6 52//6
f 52//6 40//6 38//6
f 52//6 38//6 46//6
f 40//6 53//6 47//6
f 47//6 53//6 54//6
f 47//6 54//6 50//6
f 47//20 42//20 48//20
f 48//14 42//14 41//14
f 48//14 41//14 55//14
f 55//14 41//14 56//14
f 57//11 58//11 59//11
f 59//11 58//11 56//11
f 58//12 60//12 56//12
f 56//12 60//12 55//12
f 61//13 62//13 60//13
f 60//13 62//13 55//13
f 61//8 63//8 62//8
f 62//8 63//8 64//8
f 65//9 64//9 66//9
f 66//9 64//9 63//9
f 65//10 66//10 59//10
f 59//10 66//10 57//10
f 45//21 37//21 65//21
f 65//21 37//21 64//21
f 43//22 45//22 59//22
f 59//22 45//22 65//22
f 41//23 43//23 56//23
f 56//23 43//23 59//23
f 67//18 68//18 66//18
f 66//18 68//18 69//18
f 66//18 69//18 57//18
f 57//18 69//18 70//18
f 57//18 70//18 58//18
f 58//18 70//18 60//18
f 60//18 70//18 71//18
f 60//18 71//18 72//18
f 60//18 72//18 61//18
f 61//18 72//18 67//18
f 61//18 67//18 63//18
f 63//18 67//18 66//18
f 73//1 74//1 75//1
f 75//1 74//1 76//1
f 77//2 78//2 79//2
f 79//2 78//2 80//2
f 81//3 82//3 78//3
f 78//3 82//3 80//3
f 82//4 81//4 83//4
f 83//4 81//4 84//4
f 73//5 83//5 74//5
f 74//5 83//5 84//5
f 75//19 76//19 79//19
f 79//19 76//19 77//19
f 73//21 75//21 13//21
f 13//21 75//21 16//21
f 75//17 79//17 16//17
f 16//17 79//17 17//17
f 79//7 80//7 17//7
f 17//7 80//7 18//7
f 77//6 74//6 78//6
f 78//6 74//6 84//6
f 78//6 84//6 81//6
f 77//6 76//6 74//6
f 85//11 86//11 87//11
f 87//11 86//11 88//11
f 86//12 89//12 88//12
f 88//12 89//12 90//12
f 91//13 92//13 89//13
f 89//13 92//13 90//13
f 91//8 93//8 92//8
f 92//8 93//8 94//8
f 95//9 94//9 96//9
f 96//9 94//9 93//9
f 95//10 96//10 87//10
f 87//10 96//10 85//10
f 94//21 95//21 67//21
f 67//21 95//21 68//21
f 95//22 87//22 68//22
f 68//22 87//22 69//22
f 87//23 88//23 69//23
f 69//23 88//23 70//23
f 86//18 85//18 89//18
f 89//18 85//18 96//18
f 89//18 96//18 91//18
f 91//18 96//18 93//18
f 88//14 90//14 70//14
f 70//14 90//14 71//14
f 90//7 92//7 71//7
f 71//7 92//7 72//7
f 92//17 94//17 72//17
f 72//17 94//17 67//17
f 39//7 48//7 62//7
f 62//7 48//7 55//7
f 37//17 39//17 64//17
f 64//17 39//17 62//17
f 31//23 32//23 50//23
f 50//23 32//23 49//23
f 35//24 31//24 54//24
f 54//14 31//14 50//14
f 36//7 35//7 53//7
f 53//7 35//7 54//7
f 34//25 36//25 52//25
f 52//17 36//17 53//17
f 33//21 34//21 51//21
f 51//26 34//26 52//26
f 32//22 33//22 49//22
f 49//22 33//22 51//22
f 11//22 4//22 27//22
f 27//22 4//22 25//22
f 9//23 11//23 29//23
f 29//23 11//23 27//23
f 4//21 2//21 25//21
f 25//21 2//21 23//21
f 83//22 73//22 14//22
f 14//22 73//22 13//22
f 82//23 83//23 15//23
f 15//23 83//23 14//23
f 80//14 82//14 18//14
f 18//14 82//14 15//14
#188 polygons

