# Aspose.3D Wavefront OBJ Exporter
# Copyright 2004-2021 Aspose Pty Ltd.
# File created: 07/16/2021 00:19:37


#
# object obj_44698521
#

v 0 0 0
v 0 750 0
v 0 0 1
v 0 750 1
v -750 0 0
v -750 0 1
v -750 750 0
v -750 750 1
v 0 750 450.02642822265625
v 0 2.13562273979187012 450.02642822265625
v -0.42925378680229184 750 450.7427978515625
v -0.42925378680229184 2.13562273979187012 450.7427978515625
v 1 2.13562273979187012 450.43341064453125
v 428.9822998046875 2.13562273979187012 706.880859375
v 1 2.13562273979187012 451
v 428.46832275390625 2.13562273979187012 707.7386474609375
v -7.008282842946301E-15 2.13562273979187012 451
v 428.46832275390625 750 707.7386474609375
v 428.9822998046875 750 706.880859375
v 1 750 450.43341064453125
v 1 750 1
v 1 0 2.49846887588500976
v 1 0 1
v 1 0 451
v 1.41488289833068848 0 452.49847412109375
v -749.80548095703124992 0 452.49847412109375
v 1.41488289833068848 -1 452.49847412109375
v -749.80548095703124992 -1 452.49847412109375
v 1.41488289833068848 0 2.49846887588500976
v 1.41488289833068848 -1 2.49846887588500976
v -749.80548095703124992 0 2.49846887588500976
v 0 0 2.49846887588500976
v -749.80548095703124992 -1 2.49846887588500976
v 0 0 451
v -750.01531982421875 0 450
v -750.01531982421875 750 450
v -750.01129150390625 0 450.006744384765625
v -750.01129150390625 750 450.006744384765625
v -1179.16064453125 0 706.58203125
v -1179.16064453125 750 706.58203125
v -1179.6737060546875 0 705.7237548828125
v -1179.6737060546875 750 705.7237548828125
v -751 0 449.43276977539062496
v -751 750 449.43276977539062496
v -751 750 1
v -751 0 1
v -750 750 450
v -750 0 450
v -749.80548095703124992 751 450
v 0 751 450
v -749.80548095703124992 1180.60888671875 705.65240478515625
v 0.14230124652385712 1180.60888671875 705.65240478515625
v 0.14230124652385712 750.93292236328124992 449.9600830078125
v 0 750.93292236328124992 449.9600830078125
v -749.80548095703124992 751 449.84735107421875008
v -749.80548095703124992 1181.1202392578125 704.7930908203125
v -749.80548095703124992 751.44427490234375 449.100738525390625
v 0 751 449.84735107421875008
v 0.14230124652385712 751.44427490234375 449.100738525390625
v 0.14230124652385712 1181.1202392578125 704.7930908203125
v -750 751 450
v -750 751 1
v 0 751 1
v 0 750 450
v -748.58514404296875 -429.67138671875 709.8714599609375
v 1.41488289833068848 -429.67138671875 709.8714599609375
v -748.58514404296875 -429.156646728515625 710.728759765625
v 1.41488289833068848 -429.156646728515625 710.728759765625
v -748.58514404296875 -1 452.49847412109375
v -748.58514404296875 -0.48525404930114744 453.355804443359375
v 1.41488289833068848 -0.48525404930114744 453.355804443359375
# 71 vertices

vn 1 0 0
vn 0 -1 0
vn -1 0 0
vn 0 1 0
vn 0 0 1
vn 0 0 -1
vn -0.85779511928558352 0 -0.51399177312850952
vn 0.85779511928558352 0 0.51399177312850952
vn 0.51399177312850952 -7.49658238161293E-17 -0.85779511928558352
vn 0.51399177312850952 0 -0.85779511928558352
vn -0.51399177312850952 0 0.85779511928558352
vn -0.51399177312850952 1.9001914190916018E-19 0.85779511928558352
vn 1 -1.9001913622229347E-17 -3.1619488458096816E-17
vn 1 -7.105427357601002E-14 0
vn 0 -1.8947806084001028E-17 -1
vn 1.4210854715202004E-14 0 -1
vn -1 -3.281610831394632E-15 -7.19842056378121E-15
vn 0.85829859972000128 0 -0.5131505727767944
vn -0.85829859972000128 0 0.5131505727767944
vn -0.5131505727767944 -6.505150169186473E-17 -0.85829859972000128
vn -0.5131505727767944 0 -0.85829859972000128
vn 0.5131505727767944 0 0.85829859972000128
vn 0 1.8947806084001028E-17 -1
vn 0 -0.51138472557067872 0.8593518733978272
vn -4.090453290753887E-13 -0.51138472557067872 0.8593518733978272
vn 0 -0.8593518733978272 -0.51138472557067872
vn -4.456847217670923E-13 -0.8593518733978272 -0.51138472557067872
vn 0 0.8593518733978272 0.51138472557067872
vn 0 0.51138472557067872 -0.8593518733978272
vn 1.8947806084001028E-17 0 -1
vn 0 -0.85734277963638304 0.51474595069885256
vn 0 0.85734277963638304 -0.51474595069885256
vn 0 0.51474595069885256 0.85734277963638304
vn 0 -0.51474595069885256 -0.85734277963638304
# 34 vertex normals

g obj_44698521
s 1
f 1//1 2//1 3//1
f 3//1 2//1 4//1
f 5//2 1//2 6//2
f 6//2 1//2 3//2
f 7//3 5//3 8//3
f 8//3 5//3 6//3
f 2//4 7//4 4//4
f 4//4 7//4 8//4
f 4//5 8//5 3//5
f 3//5 8//5 6//5
f 7//6 2//6 5//6
f 5//6 2//6 1//6
f 9//7 10//7 11//7
f 11//7 10//7 12//7
f 13//2 14//2 15//2
f 15//2 14//2 16//2
f 15//2 16//2 17//2
f 10//2 17//2 12//2
f 18//8 16//8 19//8
f 19//8 16//8 14//8
f 20//9 19//9 13//9
f 13//10 19//10 14//10
f 16//11 18//11 17//11
f 17//12 18//12 11//12
f 17//11 11//11 12//11
f 9//4 11//4 20//4
f 20//4 11//4 18//4
f 20//4 18//4 19//4
f 20//4 21//4 9//4
f 9//4 21//4 4//4
f 20//13 13//13 21//13
f 21//1 13//1 22//1
f 21//1 22//1 23//1
f 15//1 24//1 13//1
f 13//1 24//1 22//1
f 25//5 26//5 27//5
f 27//5 26//5 28//5
f 29//14 25//14 30//14
f 30//14 25//14 27//14
f 31//6 32//6 33//6
f 33//6 32//6 30//6
f 30//6 32//6 22//6
f 30//6 22//6 29//6
f 26//3 31//3 28//3
f 28//3 31//3 33//3
f 28//2 33//2 27//2
f 27//2 33//2 30//2
f 32//4 31//4 34//4
f 34//4 31//4 26//4
f 34//4 26//4 25//4
f 34//4 25//4 24//4
f 24//4 25//4 29//4
f 24//4 29//4 22//4
f 17//5 34//5 15//5
f 15//5 34//5 24//5
f 3//15 4//15 23//15
f 23//16 4//16 21//16
f 32//2 3//2 22//2
f 22//2 3//2 23//2
f 9//3 4//3 10//3
f 10//3 4//3 32//3
f 10//3 32//3 34//3
f 4//3 3//3 32//3
f 34//17 17//17 10//17
f 35//18 36//18 37//18
f 37//18 36//18 38//18
f 39//19 40//19 41//19
f 41//19 40//19 42//19
f 43//20 41//20 44//20
f 44//21 41//21 42//21
f 40//22 39//22 38//22
f 38//22 39//22 37//22
f 44//3 45//3 43//3
f 43//3 45//3 46//3
f 42//4 40//4 44//4
f 44//4 40//4 38//4
f 44//4 38//4 36//4
f 36//4 47//4 44//4
f 44//4 47//4 8//4
f 44//4 8//4 45//4
f 8//23 6//23 45//23
f 45//23 6//23 46//23
f 36//5 35//5 47//5
f 47//5 35//5 48//5
f 46//2 6//2 43//2
f 43//2 6//2 48//2
f 43//2 48//2 35//2
f 35//2 37//2 43//2
f 43//2 37//2 39//2
f 43//2 39//2 41//2
f 6//1 8//1 48//1
f 48//1 8//1 47//1
f 49//24 50//24 51//24
f 51//24 50//24 52//24
f 52//25 50//25 53//25
f 53//24 50//24 54//24
f 49//3 51//3 55//3
f 55//3 51//3 56//3
f 55//3 56//3 57//3
f 55//26 57//26 58//26
f 58//26 57//26 59//26
f 58//27 59//27 53//27
f 53//26 54//26 58//26
f 52//1 53//1 60//1
f 60//1 53//1 59//1
f 51//28 52//28 56//28
f 56//28 52//28 60//28
f 56//29 60//29 57//29
f 57//29 60//29 59//29
f 49//4 55//4 61//4
f 61//4 55//4 62//4
f 62//4 55//4 63//4
f 63//4 55//4 58//4
f 4//30 8//30 63//30
f 63//30 8//30 62//30
f 50//1 64//1 54//1
f 54//1 64//1 58//1
f 58//1 64//1 4//1
f 58//1 4//1 63//1
f 61//5 47//5 49//5
f 49//5 47//5 64//5
f 49//5 64//5 50//5
f 8//3 47//3 62//3
f 62//3 47//3 61//3
f 8//2 4//2 47//2
f 47//2 4//2 64//2
f 65//31 66//31 67//31
f 67//31 66//31 68//31
f 69//3 65//3 70//3
f 70//3 65//3 67//3
f 27//32 69//32 71//32
f 71//32 69//32 70//32
f 66//1 27//1 68//1
f 68//1 27//1 71//1
f 71//33 70//33 68//33
f 68//33 70//33 67//33
f 66//34 65//34 27//34
f 27//34 65//34 69//34
#138 polygons

