# Aspose.3D Wavefront OBJ Exporter
# Copyright 2004-2021 Aspose Pty Ltd.
# File created: 07/16/2021 00:21:37


#
# object obj_55617002
#

v 2.24486923217773436 3.20000004768371584 4.9261550903320312
v 2.24486923217773436 2.5 4.9261550903320312
v 2.25 3.20000004768371584 4.82498693466186528
v 2.25 2.5 4.82498693466186528
v 2.24486923217773436 3.20000004768371584 4.7238187789916992
v 2.24486923217773436 2.5 4.7238187789916992
v 2.22952985763549804 2.5 4.6236882209777832
v 2.22952985763549804 3.20000004768371584 5.02628564834594726
v 2.22952985763549804 2.5 5.02628564834594726
v 2.20413923263549804 3.20000004768371584 5.12435007095336914
v 2.20413923263549804 2.5 5.12435007095336914
v 2.16895794868469238 3.20000004768371584 5.21934270858764648
v 2.16895794868469238 2.5 5.21934270858764648
v 2.12434673309326172 3.20000004768371584 5.31028890609741212
v 2.12434673309326172 2.5 5.31028890609741212
v 2.07076334953308105 3.20000004768371584 5.39625501632690432
v 2.07076334953308105 2.5 5.39625501632690432
v 2.00875806808471679 3.20000004768371584 5.47635936737060544
v 2.00875806808471679 2.5 5.47635936737060544
v 1.93896698951721184 3.20000004768371584 5.54977989196777344
v 1.93896698951721184 2.5 5.54977989196777344
v 1.86210596561431888 3.20000004768371584 5.61576271057128904
v 1.86210596561431888 2.5 5.61576271057128904
v 1.77896404266357424 3.20000004768371584 5.67363119125366208
v 1.77896404266357424 2.5 5.67363119125366208
v 1.69039416313171384 3.20000004768371584 5.72279167175292976
v 1.69039416313171384 2.5 5.72279167175292976
v 1.59730529785156248 3.20000004768371584 5.76273918151855472
v 1.59730529785156248 2.5 5.76273918151855472
v 1.50065255165100096 3.20000004768371584 5.79306411743164064
v 1.50065255165100096 2.5 5.79306411743164064
v 1.40142774581909176 3.20000004768371584 5.8134551048278808
v 1.40142774581909176 2.5 5.8134551048278808
v 1.30064916610717772 3.20000004768371584 5.8237032890319824
v 1.30064916610717772 2.5 5.8237032890319824
v 1.19935083389282228 3.20000004768371584 5.8237032890319824
v 1.19935083389282228 2.5 5.8237032890319824
v 1.0985722541809082 3.20000004768371584 5.8134551048278808
v 1.0985722541809082 2.5 5.8134551048278808
v 0.99934750795364384 3.20000004768371584 5.79306411743164064
v 0.99934750795364384 2.5 5.79306411743164064
v 0.90269476175308224 3.20000004768371584 5.76273918151855472
v 0.90269476175308224 2.5 5.76273918151855472
v 0.80960589647293088 3.20000004768371584 5.72279167175292976
v 0.80960589647293088 2.5 5.72279167175292976
v 0.72103601694107056 3.20000004768371584 5.67363119125366208
v 0.72103601694107056 2.5 5.67363119125366208
v 0.63789403438568112 3.20000004768371584 5.61576271057128904
v 0.63789403438568112 2.5 5.61576271057128904
v 0.56103307008743288 3.20000004768371584 5.54977989196777344
v 0.56103307008743288 2.5 5.54977989196777344
v 0.4912419021129608 3.20000004768371584 5.47635936737060544
v 0.4912419021129608 2.5 5.47635936737060544
v 0.42923659086227416 3.20000004768371584 5.39625501632690432
v 0.42923659086227416 2.5 5.39625501632690432
v 0.37565341591835024 3.20000004768371584 5.31028890609741212
v 0.37565341591835024 2.5 5.31028890609741212
v 0.33104220032691956 3.20000004768371584 5.21934270858764648
v 0.33104220032691956 2.5 5.21934270858764648
v 0.29586076736450196 3.20000004768371584 5.12435007095336914
v 0.29586076736450196 2.5 5.12435007095336914
v 0.27047008275985716 3.20000004768371584 5.02628564834594726
v 0.27047008275985716 2.5 5.02628564834594726
v 0.25513070821762084 3.20000004768371584 4.9261550903320312
v 0.25513070821762084 2.5 4.9261550903320312
v 0.2500000298023224 3.20000004768371584 4.82498693466186528
v 0.2500000298023224 2.5 4.82498693466186528
v 0.25513070821762084 3.20000004768371584 4.7238187789916992
v 0.25513070821762084 2.5 4.7238187789916992
v 0.27047008275985716 3.20000004768371584 4.6236882209777832
v 0.27047008275985716 2.5 4.6236882209777832
v 0.29586076736450196 3.20000004768371584 4.52562379837036136
v 0.29586076736450196 2.5 4.52562379837036136
v 0.33104220032691956 3.20000004768371584 4.430631160736084
v 0.33104220032691956 2.5 4.430631160736084
v 0.37565341591835024 3.20000004768371584 4.33968496322631836
v 0.37565341591835024 2.5 4.33968496322631836
v 0.42923659086227416 3.20000004768371584 4.25371885299682616
v 0.42923659086227416 2.5 4.25371885299682616
v 0.4912419021129608 3.20000004768371584 4.173614501953125
v 0.4912419021129608 2.5 4.173614501953125
v 0.56103307008743288 3.20000004768371584 4.10019397735595704
v 0.56103307008743288 2.5 4.10019397735595704
v 0.63789403438568112 3.20000004768371584 4.0342111587524414
v 0.63789403438568112 2.5 4.0342111587524414
v 0.72103601694107056 3.20000004768371584 3.97634267807006832
v 0.72103601694107056 2.5 3.97634267807006832
v 0.80960589647293088 3.20000004768371584 3.92718243598937984
v 0.80960589647293088 2.5 3.92718243598937984
v 0.90269476175308224 3.20000004768371584 3.88723492622375488
v 0.90269476175308224 2.5 3.88723492622375488
v 0.99934750795364384 3.20000004768371584 3.85690975189208992
v 0.99934750795364384 2.5 3.85690975189208992
v 1.0985722541809082 3.20000004768371584 3.83651852607727056
v 1.0985722541809082 2.5 3.83651852607727056
v 1.19935083389282228 3.20000004768371584 3.82627034187316896
v 1.19935083389282228 2.5 3.82627034187316896
v 1.30064916610717772 3.20000004768371584 3.82627034187316896
v 1.30064916610717772 2.5 3.82627034187316896
v 1.40142774581909176 3.20000004768371584 3.83651852607727056
v 1.40142774581909176 2.5 3.83651852607727056
v 1.50065255165100096 3.20000004768371584 3.85690975189208992
v 1.50065255165100096 2.5 3.85690975189208992
v 1.59730529785156248 3.20000004768371584 3.88723492622375488
v 1.59730529785156248 2.5 3.88723492622375488
v 1.69039416313171384 3.20000004768371584 3.92718243598937984
v 1.69039416313171384 2.5 3.92718243598937984
v 1.77896404266357424 3.20000004768371584 3.97634267807006832
v 1.77896404266357424 2.5 3.97634267807006832
v 1.86210596561431888 3.20000004768371584 4.0342111587524414
v 1.86210596561431888 2.5 4.0342111587524414
v 1.93896698951721184 3.20000004768371584 4.10019397735595704
v 1.93896698951721184 2.5 4.10019397735595704
v 2.00875806808471679 3.20000004768371584 4.173614501953125
v 2.00875806808471679 2.5 4.173614501953125
v 2.07076334953308105 3.20000004768371584 4.25371885299682616
v 2.07076334953308105 2.5 4.25371885299682616
v 2.12434673309326172 3.20000004768371584 4.33968496322631836
v 2.12434673309326172 2.5 4.33968496322631836
v 2.16895794868469238 3.20000004768371584 4.430631160736084
v 2.16895794868469238 2.5 4.430631160736084
v 2.20413923263549804 3.20000004768371584 4.52562379837036136
v 2.20413923263549804 2.5 4.52562379837036136
v 2.22952985763549804 3.20000004768371584 4.6236882209777832
v 2.5 2.5 6
v 0 2.5 6
v 0 2.5 0
v 2.5 2.5 0
v 2.5 0 0
v 2.5 0 6
v 0 0 0
v 0 0 6
v 0.2500000298023224 2.78068399429321296 4.11165571212768554
v -8.75 2.78068399429321296 4.11165571212768554
v 0.2500000298023224 3.03679180145263672 4.11165571212768554
v -8.75 3.03679180145263672 4.11165571212768554
v 0.2500000298023224 3.03679180145263672 5.32498693466186524
v -8.75 3.03679180145263672 5.32498693466186524
v 0.2500000298023224 2.78068399429321296 5.32498693466186524
v -8.75 2.78068399429321296 5.32498693466186524
# 140 vertices

vn 0.99871653318405152 0 0.05064916983246803
vn 0.99871653318405152 0 -0.05064916983246803
vn 0.99871653318405152 6.42649985131146E-17 -0.05064916983246803
vn 0.98846834897994992 1.9213555392012674E-16 -0.15142777562141418
vn 0.98846834897994992 0 0.15142777562141418
vn 0.96807712316513056 0 0.2506525218486786
vn 0.93775212764739984 0 0.34730523824691772
vn 0.89780455827713008 0 0.44039416313171384
vn 0.89780455827713008 5.749072016855033E-16 0.44039416313171384
vn 0.8486442565917968 5.383910819337784E-16 0.52896398305892944
vn 0.8486442565917968 0 0.52896398305892944
vn 0.79077571630477904 0 0.61210596561431888
vn 0.79077571630477904 5.015148143607928E-16 0.61210596561431888
vn 0.72479277849197392 4.598180822849829E-16 0.68896692991256712
vn 0.72479277849197392 0 0.68896692991256712
vn 0.65137249231338504 0 0.7587581276893616
vn 0.65137249231338504 2.0794515918283224E-16 0.7587581276893616
vn 0.57126820087432864 1.8121003327551815E-16 0.82076346874237056
vn 0.57126820087432864 0 0.82076346874237056
vn 0.48530197143554688 0 0.87434661388397216
vn 0.3943558633327484 0 0.91895782947540288
vn 0.3943558633327484 -1.2232068965748355E-16 0.91895782947540288
vn 0.29936313629150392 -9.495995050928335E-17 0.95413923263549808
vn 0.29936313629150392 9.174051062566777E-17 0.95413923263549808
vn 0.20129851996898652 6.385321476929591E-17 0.97952991724014288
vn 0.20129851996898652 -6.116034482874178E-17 0.97952991724014288
vn 0.10116831958293914 -3.209125603121541E-17 0.994869351387024
vn 0.10116831958293914 3.363818965580798E-17 0.994869351387024
vn 0 0 1
vn -0.10116831958293914 3.209125603121541E-17 0.994869351387024
vn -0.10116831958293914 -3.058017241437089E-17 0.994869351387024
vn -0.20129851996898652 -6.385321476929591E-17 0.97952991724014288
vn -0.20129851996898652 3.058017241437089E-17 0.97952991724014288
vn -0.29936313629150392 4.7479975254641676E-17 0.95413923263549808
vn -0.29936313629150392 -9.174051062566777E-17 0.95413923263549808
vn -0.3943558633327484 -1.2509227410512823E-16 0.91895782947540288
vn -0.3943558633327484 -9.112890783912484E-16 0.91895782947540288
vn -0.48530197143554688 -8.0151202024031495E-16 0.87434661388397216
vn -0.48530197143554688 0 0.87434661388397216
vn -0.57126820087432864 0 0.82076346874237056
vn -0.57126820087432864 3.6696204250267106E-16 0.82076346874237056
vn -0.65137249231338504 4.1323926405943613E-16 0.7587581276893616
vn -0.65137249231338504 0 0.7587581276893616
vn -0.72479277849197392 0 0.68896692991256712
vn -0.79077571630477904 0 0.61210596561431888
vn -0.8486442565917968 0 0.52896398305892944
vn -0.89780455827713008 0 0.44039416313171384
vn -0.93775212764739984 0 0.34730523824691772
vn -0.96807712316513056 0 0.2506525218486786
vn -0.98846834897994992 0 0.15142777562141418
vn -0.99871653318405152 0 0.05064916983246803
vn -0.99871653318405152 0 -0.05064916983246803
vn -0.98846834897994992 0 -0.15142777562141418
vn -0.96807712316513056 0 -0.2506525218486786
vn -0.93775212764739984 0 -0.34730523824691772
vn -0.89780455827713008 0 -0.44039416313171384
vn -0.8486442565917968 0 -0.52896398305892944
vn -0.79077571630477904 0 -0.61210596561431888
vn -0.72479277849197392 0 -0.68896692991256712
vn -0.65137249231338504 0 -0.7587581276893616
vn -0.65137249231338504 -4.0365826263480593E-16 -0.7587581276893616
vn -0.57126820087432864 -3.624200665510363E-16 -0.82076346874237056
vn -0.57126820087432864 0 -0.82076346874237056
vn -0.48530197143554688 0 -0.87434661388397216
vn -0.48530197143554688 -3.058017109088191E-16 -0.87434661388397216
vn -0.3943558633327484 -2.5018454821025646E-16 -0.91895782947540288
vn -0.3943558633327484 1.2843671752291283E-16 -0.91895782947540288
vn -0.29936313629150392 9.495995050928335E-17 -0.95413923263549808
vn -0.29936313629150392 -4.892827255427097E-17 -0.95413923263549808
vn -0.20129851996898652 -3.1926607384647954E-17 -0.97952991724014288
vn -0.20129851996898652 6.116034482874178E-17 -0.97952991724014288
vn -0.10116831958293914 3.209125603121541E-17 -0.994869351387024
vn -0.10116831958293914 -3.058017241437089E-17 -0.994869351387024
vn 0 0 -1
vn 0.10116831958293914 -3.209125603121541E-17 -0.994869351387024
vn 0.10116831958293914 3.363818965580798E-17 -0.994869351387024
vn 0.20129851996898652 6.385321476929591E-17 -0.97952991724014288
vn 0.20129851996898652 -6.727637931161595E-17 -0.97952991724014288
vn 0.29936313629150392 -9.495995050928335E-17 -0.95413923263549808
vn 0.29936313629150392 9.785654510854194E-17 -0.95413923263549808
vn 0.3943558633327484 1.2509227410512823E-16 -0.91895782947540288
vn 0.3943558633327484 0 -0.91895782947540288
vn 0.48530197143554688 0 -0.87434661388397216
vn 0.57126820087432864 0 -0.82076346874237056
vn 0.57126820087432864 -1.8348102125133553E-16 -0.82076346874237056
vn 0.65137249231338504 -2.0661963202971807E-16 -0.7587581276893616
vn 0.65137249231338504 0 -0.7587581276893616
vn 0.72479277849197392 0 -0.68896692991256712
vn 0.72479277849197392 4.158903183656645E-16 -0.68896692991256712
vn 0.79077571630477904 2.7497765256264306E-16 -0.61210596561431888
vn 0.79077571630477904 0 -0.61210596561431888
vn 0.8486442565917968 0 -0.52896398305892944
vn 0.8486442565917968 1.345527586232319E-16 -0.52896398305892944
vn 0.89780455827713008 -1.0795324070553976E-17 -0.44039416313171384
vn 0.89780455827713008 0 -0.44039416313171384
vn 0.93775212764739984 0 -0.34730523824691772
vn 0.93775212764739984 4.403544562971612E-16 -0.34730523824691772
vn 0.96807712316513056 3.180345342632861E-16 -0.2506525218486786
vn 0.96807712316513056 0 -0.2506525218486786
vn 0.98846834897994992 0 -0.15142777562141418
vn 0 1 0
vn 1 0 0
vn 0 -1 0
vn -1 0 0
# 104 vertex normals

g obj_55617002
s 1
f 1//1 2//1 3//1
f 3//1 2//1 4//1
f 3//2 4//2 5//2
f 5//3 4//3 6//3
f 5//4 6//4 7//4
f 1//5 8//5 2//5
f 2//5 8//5 9//5
f 9//6 8//6 10//6
f 9//6 10//6 11//6
f 11//7 10//7 12//7
f 11//7 12//7 13//7
f 13//8 12//8 14//8
f 13//9 14//9 15//9
f 15//10 14//10 16//10
f 15//11 16//11 17//11
f 17//12 16//12 18//12
f 17//13 18//13 19//13
f 19//14 18//14 20//14
f 19//15 20//15 21//15
f 21//16 20//16 22//16
f 21//17 22//17 23//17
f 23//18 22//18 24//18
f 23//19 24//19 25//19
f 25//20 24//20 26//20
f 25//20 26//20 27//20
f 27//21 26//21 28//21
f 27//22 28//22 29//22
f 29//23 28//23 30//23
f 29//24 30//24 31//24
f 31//25 30//25 32//25
f 31//26 32//26 33//26
f 33//27 32//27 34//27
f 33//28 34//28 35//28
f 35//29 34//29 36//29
f 35//29 36//29 37//29
f 37//30 36//30 38//30
f 37//31 38//31 39//31
f 39//32 38//32 40//32
f 39//33 40//33 41//33
f 41//34 40//34 42//34
f 41//35 42//35 43//35
f 43//36 42//36 44//36
f 43//37 44//37 45//37
f 45//38 44//38 46//38
f 45//39 46//39 47//39
f 47//40 46//40 48//40
f 47//41 48//41 49//41
f 49//42 48//42 50//42
f 49//43 50//43 51//43
f 51//44 50//44 52//44
f 51//44 52//44 53//44
f 53//45 52//45 54//45
f 53//45 54//45 55//45
f 55//46 54//46 56//46
f 55//46 56//46 57//46
f 57//47 56//47 58//47
f 57//47 58//47 59//47
f 59//48 58//48 60//48
f 59//48 60//48 61//48
f 61//49 60//49 62//49
f 61//49 62//49 63//49
f 63//50 62//50 64//50
f 63//50 64//50 65//50
f 65//51 64//51 66//51
f 65//51 66//51 67//51
f 67//52 66//52 68//52
f 67//52 68//52 69//52
f 69//53 68//53 70//53
f 69//53 70//53 71//53
f 71//54 70//54 72//54
f 71//54 72//54 73//54
f 73//55 72//55 74//55
f 73//55 74//55 75//55
f 75//56 74//56 76//56
f 75//56 76//56 77//56
f 77//57 76//57 78//57
f 77//57 78//57 79//57
f 79//58 78//58 80//58
f 79//58 80//58 81//58
f 81//59 80//59 82//59
f 81//59 82//59 83//59
f 83//60 82//60 84//60
f 83//61 84//61 85//61
f 85//62 84//62 86//62
f 85//63 86//63 87//63
f 87//64 86//64 88//64
f 87//65 88//65 89//65
f 89//66 88//66 90//66
f 89//67 90//67 91//67
f 91//68 90//68 92//68
f 91//69 92//69 93//69
f 93//70 92//70 94//70
f 93//71 94//71 95//71
f 95//72 94//72 96//72
f 95//73 96//73 97//73
f 97//74 96//74 98//74
f 97//74 98//74 99//74
f 99//75 98//75 100//75
f 99//76 100//76 101//76
f 101//77 100//77 102//77
f 101//78 102//78 103//78
f 103//79 102//79 104//79
f 103//80 104//80 105//80
f 105//81 104//81 106//81
f 105//82 106//82 107//82
f 107//83 106//83 108//83
f 107//83 108//83 109//83
f 109//84 108//84 110//84
f 109//85 110//85 111//85
f 111//86 110//86 112//86
f 111//87 112//87 113//87
f 113//88 112//88 114//88
f 113//89 114//89 115//89
f 115//90 114//90 116//90
f 115//91 116//91 117//91
f 117//92 116//92 118//92
f 117//93 118//93 119//93
f 119//94 118//94 120//94
f 119//95 120//95 121//95
f 121//96 120//96 122//96
f 121//97 122//97 123//97
f 123//98 122//98 124//98
f 123//99 124//99 7//99
f 7//100 124//100 5//100
f 5//101 68//101 3//101
f 3//101 68//101 66//101
f 3//101 66//101 1//101
f 1//101 66//101 64//101
f 1//101 64//101 8//101
f 8//101 64//101 62//101
f 8//101 62//101 10//101
f 10//101 62//101 60//101
f 10//101 60//101 12//101
f 12//101 60//101 58//101
f 12//101 58//101 14//101
f 14//101 58//101 56//101
f 14//101 56//101 16//101
f 16//101 56//101 54//101
f 16//101 54//101 18//101
f 18//101 54//101 52//101
f 18//101 52//101 20//101
f 20//101 52//101 50//101
f 20//101 50//101 22//101
f 22//101 50//101 48//101
f 22//101 48//101 24//101
f 24//101 48//101 46//101
f 24//101 46//101 26//101
f 26//101 46//101 44//101
f 26//101 44//101 28//101
f 28//101 44//101 42//101
f 28//101 42//101 30//101
f 30//101 42//101 40//101
f 30//101 40//101 32//101
f 32//101 40//101 38//101
f 32//101 38//101 34//101
f 34//101 38//101 36//101
f 68//101 5//101 70//101
f 70//101 5//101 124//101
f 70//101 124//101 72//101
f 72//101 124//101 122//101
f 72//101 122//101 74//101
f 74//101 122//101 120//101
f 74//101 120//101 76//101
f 76//101 120//101 118//101
f 76//101 118//101 78//101
f 78//101 118//101 116//101
f 78//101 116//101 80//101
f 80//101 116//101 114//101
f 80//101 114//101 82//101
f 82//101 114//101 112//101
f 82//101 112//101 84//101
f 84//101 112//101 110//101
f 84//101 110//101 86//101
f 86//101 110//101 108//101
f 86//101 108//101 88//101
f 88//101 108//101 106//101
f 88//101 106//101 90//101
f 90//101 106//101 104//101
f 90//101 104//101 92//101
f 92//101 104//101 102//101
f 92//101 102//101 94//101
f 94//101 102//101 100//101
f 94//101 100//101 96//101
f 96//101 100//101 98//101
f 6//101 4//101 125//101
f 125//101 4//101 2//101
f 125//101 2//101 9//101
f 9//101 11//101 125//101
f 125//101 11//101 13//101
f 125//101 13//101 15//101
f 15//101 17//101 125//101
f 125//101 17//101 19//101
f 125//101 19//101 21//101
f 21//101 23//101 125//101
f 125//101 23//101 25//101
f 125//101 25//101 27//101
f 27//101 29//101 125//101
f 125//101 29//101 31//101
f 125//101 31//101 33//101
f 33//101 35//101 125//101
f 125//101 35//101 37//101
f 125//101 37//101 126//101
f 126//101 37//101 39//101
f 126//101 39//101 41//101
f 41//101 43//101 126//101
f 126//101 43//101 45//101
f 126//101 45//101 47//101
f 47//101 49//101 126//101
f 126//101 49//101 51//101
f 126//101 51//101 53//101
f 53//101 55//101 126//101
f 126//101 55//101 57//101
f 126//101 57//101 59//101
f 59//101 61//101 126//101
f 126//101 61//101 63//101
f 126//101 63//101 65//101
f 65//101 67//101 126//101
f 126//101 67//101 69//101
f 126//101 69//101 127//101
f 127//101 69//101 71//101
f 127//101 71//101 73//101
f 73//101 75//101 127//101
f 127//101 75//101 77//101
f 127//101 77//101 79//101
f 79//101 81//101 127//101
f 127//101 81//101 83//101
f 127//101 83//101 85//101
f 85//101 87//101 127//101
f 127//101 87//101 89//101
f 127//101 89//101 91//101
f 91//101 93//101 127//101
f 127//101 93//101 95//101
f 127//101 95//101 97//101
f 97//101 99//101 127//101
f 127//101 99//101 128//101
f 128//101 99//101 101//101
f 128//101 101//101 103//101
f 103//101 105//101 128//101
f 128//101 105//101 107//101
f 128//101 107//101 109//101
f 109//101 111//101 128//101
f 128//101 111//101 113//101
f 128//101 113//101 115//101
f 115//101 117//101 128//101
f 128//101 117//101 119//101
f 128//101 119//101 121//101
f 121//101 123//101 128//101
f 128//101 123//101 7//101
f 128//101 7//101 6//101
f 128//101 6//101 125//101
f 129//102 128//102 130//102
f 130//102 128//102 125//102
f 131//103 129//103 132//103
f 132//103 129//103 130//103
f 127//104 131//104 126//104
f 126//104 131//104 132//104
f 132//29 130//29 126//29
f 126//29 130//29 125//29
f 127//74 128//74 131//74
f 131//74 128//74 129//74
f 133//74 134//74 135//74
f 135//74 134//74 136//74
f 137//101 135//101 138//101
f 138//101 135//101 136//101
f 137//29 138//29 139//29
f 139//29 138//29 140//29
f 133//103 139//103 134//103
f 134//103 139//103 140//103
f 134//104 140//104 136//104
f 136//104 140//104 138//104
f 133//102 135//102 139//102
f 139//102 135//102 137//102
#272 polygons

